<svg id="visual" viewBox="0 0 900 600" width="900" height="600" xmlns="http://www.w3.org/2000/svg" xmlns:xlink="http://www.w3.org/1999/xlink" version="1.1"><path d="M836 600L764 600L764 545L746 545L746 491L746 491L746 436L728 436L728 382L827 382L827 327L728 327L728 273L701 273L701 218L800 218L800 164L800 164L800 109L791 109L791 55L836 55L836 0L900 0L900 55L900 55L900 109L900 109L900 164L900 164L900 218L900 218L900 273L900 273L900 327L900 327L900 382L900 382L900 436L900 436L900 491L900 491L900 545L900 545L900 600L900 600Z" fill="#a200ff"></path><path d="M593 600L593 600L593 545L431 545L431 491L593 491L593 436L458 436L458 382L476 382L476 327L548 327L548 273L350 273L350 218L521 218L521 164L656 164L656 109L413 109L413 55L485 55L485 0L837 0L837 55L792 55L792 109L801 109L801 164L801 164L801 218L702 218L702 273L729 273L729 327L828 327L828 382L729 382L729 436L747 436L747 491L747 491L747 545L765 545L765 600L837 600Z" fill="#6225cd"></path><path d="M530 600L512 600L512 545L296 545L296 491L476 491L476 436L314 436L314 382L395 382L395 327L404 327L404 273L296 273L296 218L458 218L458 164L593 164L593 109L332 109L332 55L413 55L413 0L486 0L486 55L414 55L414 109L657 109L657 164L522 164L522 218L351 218L351 273L549 273L549 327L477 327L477 382L459 382L459 436L594 436L594 491L432 491L432 545L594 545L594 600L594 600Z" fill="#2c2498"></path><path d="M431 600L332 600L332 545L215 545L215 491L386 491L386 436L125 436L125 382L260 382L260 327L314 327L314 273L206 273L206 218L233 218L233 164L332 164L332 109L188 109L188 55L287 55L287 0L414 0L414 55L333 55L333 109L594 109L594 164L459 164L459 218L297 218L297 273L405 273L405 327L396 327L396 382L315 382L315 436L477 436L477 491L297 491L297 545L513 545L513 600L531 600Z" fill="#001a61"></path><path d="M0 600L0 600L0 545L0 545L0 491L0 491L0 436L0 436L0 382L0 382L0 327L0 327L0 273L0 273L0 218L0 218L0 164L0 164L0 109L0 109L0 55L0 55L0 0L288 0L288 55L189 55L189 109L333 109L333 164L234 164L234 218L207 218L207 273L315 273L315 327L261 327L261 382L126 382L126 436L387 436L387 491L216 491L216 545L333 545L333 600L432 600Z" fill="#00042c"></path></svg>