<svg id="visual" viewBox="0 0 900 600" width="900" height="600" xmlns="http://www.w3.org/2000/svg" xmlns:xlink="http://www.w3.org/1999/xlink" version="1.1"><rect x="0" y="0" width="900" height="600" fill="#0066FF"></rect><defs><linearGradient id="grad1_0" x1="33.3%" y1="0%" x2="100%" y2="100%"><stop offset="20%" stop-color="#0066ff" stop-opacity="1"></stop><stop offset="80%" stop-color="#0066ff" stop-opacity="1"></stop></linearGradient></defs><defs><linearGradient id="grad2_0" x1="0%" y1="0%" x2="66.7%" y2="100%"><stop offset="20%" stop-color="#0066ff" stop-opacity="1"></stop><stop offset="80%" stop-color="#0066ff" stop-opacity="1"></stop></linearGradient></defs><g transform="translate(900, 0)"><path d="M0 486.7C-69.5 485.4 -139 484 -186.3 449.7C-233.5 415.4 -258.6 348 -301.2 301.2C-343.9 254.4 -404.1 228.2 -437.9 181.4C-471.8 134.6 -479.3 67.3 -486.7 0L0 0Z" fill="#4FACF7"></path></g><g transform="translate(0, 600)"><path d="M0 -486.7C54.1 -448.9 108.2 -411.1 158.8 -383.4C209.4 -355.7 256.6 -338 309 -309C361.4 -280 419.2 -239.7 449.7 -186.3C480.2 -132.9 483.5 -66.4 486.7 0L0 0Z" fill="#4FACF7"></path></g></svg>