<svg id="visual" viewBox="0 0 900 600" width="900" height="600" xmlns="http://www.w3.org/2000/svg" xmlns:xlink="http://www.w3.org/1999/xlink" version="1.1"><g stroke-width="1" stroke-linejoin="bevel"><path d="M446 267L468 189L328 159Z" fill="#f7770f" stroke="#f7770f"></path><path d="M328 159L327 278L446 267Z" fill="#f7770f" stroke="#f7770f"></path><path d="M468 189L442 0L328 159Z" fill="#fcaf3c" stroke="#fcaf3c"></path><path d="M327 278L416 435L446 267Z" fill="#fba432" stroke="#fba432"></path><path d="M626 291L623 168L468 189Z" fill="#fba432" stroke="#fba432"></path><path d="M285 0L172 128L328 159Z" fill="#fcaf3c" stroke="#fcaf3c"></path><path d="M328 159L172 128L327 278Z" fill="#fb9f2d" stroke="#fb9f2d"></path><path d="M327 278L282 445L416 435Z" fill="#fcaf3c" stroke="#fcaf3c"></path><path d="M442 0L285 0L328 159Z" fill="#fba432" stroke="#fba432"></path><path d="M626 291L468 189L446 267Z" fill="#f98e20" stroke="#f98e20"></path><path d="M468 189L572 0L442 0Z" fill="#f98e20" stroke="#f98e20"></path><path d="M606 444L626 291L446 267Z" fill="#fcaa37" stroke="#fcaa37"></path><path d="M165 439L282 445L327 278Z" fill="#fb9f2d" stroke="#fb9f2d"></path><path d="M172 128L126 272L327 278Z" fill="#fb9f2d" stroke="#fb9f2d"></path><path d="M623 168L572 0L468 189Z" fill="#fcaa37" stroke="#fcaa37"></path><path d="M285 0L158 0L172 128Z" fill="#fba432" stroke="#fba432"></path><path d="M172 128L0 147L126 272Z" fill="#fcaf3c" stroke="#fcaf3c"></path><path d="M416 435L606 444L446 267Z" fill="#fba432" stroke="#fba432"></path><path d="M454 600L606 444L416 435Z" fill="#f88317" stroke="#f88317"></path><path d="M126 272L165 439L327 278Z" fill="#f88317" stroke="#f88317"></path><path d="M753 470L747 266L626 291Z" fill="#f98e20" stroke="#f98e20"></path><path d="M626 291L747 266L623 168Z" fill="#fcaf3c" stroke="#fcaf3c"></path><path d="M623 168L739 0L572 0Z" fill="#f7770f" stroke="#f7770f"></path><path d="M747 266L765 130L623 168Z" fill="#f87d13" stroke="#f87d13"></path><path d="M0 0L0 147L172 128Z" fill="#fba432" stroke="#fba432"></path><path d="M126 272L0 324L165 439Z" fill="#fcaa37" stroke="#fcaa37"></path><path d="M268 600L416 435L282 445Z" fill="#f9891b" stroke="#f9891b"></path><path d="M268 600L454 600L416 435Z" fill="#fa9424" stroke="#fa9424"></path><path d="M765 130L739 0L623 168Z" fill="#fba432" stroke="#fba432"></path><path d="M0 147L0 324L126 272Z" fill="#fcaf3c" stroke="#fcaf3c"></path><path d="M165 439L268 600L282 445Z" fill="#f98e20" stroke="#f98e20"></path><path d="M149 600L268 600L165 439Z" fill="#fcaa37" stroke="#fcaa37"></path><path d="M606 444L753 470L626 291Z" fill="#f88317" stroke="#f88317"></path><path d="M454 600L588 600L606 444Z" fill="#fa9a29" stroke="#fa9a29"></path><path d="M158 0L0 0L172 128Z" fill="#fa9424" stroke="#fa9424"></path><path d="M588 600L753 470L606 444Z" fill="#f87d13" stroke="#f87d13"></path><path d="M747 266L900 148L765 130Z" fill="#fb9f2d" stroke="#fb9f2d"></path><path d="M0 454L149 600L165 439Z" fill="#fba432" stroke="#fba432"></path><path d="M0 324L0 454L165 439Z" fill="#fa9a29" stroke="#fa9a29"></path><path d="M900 311L900 148L747 266Z" fill="#f98e20" stroke="#f98e20"></path><path d="M765 130L900 0L739 0Z" fill="#fb9f2d" stroke="#fb9f2d"></path><path d="M753 470L900 311L747 266Z" fill="#fba432" stroke="#fba432"></path><path d="M588 600L760 600L753 470Z" fill="#f9891b" stroke="#f9891b"></path><path d="M753 470L900 449L900 311Z" fill="#fa9424" stroke="#fa9424"></path><path d="M900 148L900 0L765 130Z" fill="#fa9424" stroke="#fa9424"></path><path d="M0 454L0 600L149 600Z" fill="#f88317" stroke="#f88317"></path><path d="M900 600L900 449L753 470Z" fill="#fb9f2d" stroke="#fb9f2d"></path><path d="M760 600L900 600L753 470Z" fill="#f88317" stroke="#f88317"></path></g></svg>